<mxfile host="app.diagrams.net" modified="2022-05-04T01:09:12.039Z" agent="5.0 (Windows NT 10.0; Win64; x64) AppleWebKit/537.36 (KHTML, like Gecko) Chrome/100.0.4896.127 Safari/537.36" etag="C7qlZmn9Vw-1Im_0an6H" version="17.5.0" type="github">
  <diagram id="MbthUpXyPmesCrgjHt36" name="第 1 页">
    <mxGraphModel dx="782" dy="436" grid="1" gridSize="10" guides="1" tooltips="1" connect="1" arrows="1" fold="1" page="1" pageScale="1" pageWidth="827" pageHeight="1169" math="0" shadow="0">
      <root>
        <mxCell id="0" />
        <mxCell id="1" parent="0" />
        <mxCell id="SmYeuK_kKV1mSQ7y7H2v-4" value="" style="group" vertex="1" connectable="0" parent="1">
          <mxGeometry x="50" y="80" width="80" height="80" as="geometry" />
        </mxCell>
        <mxCell id="SmYeuK_kKV1mSQ7y7H2v-1" value="" style="rounded=0;whiteSpace=wrap;html=1;fillColor=#d5e8d4;strokeColor=#82b366;" vertex="1" parent="SmYeuK_kKV1mSQ7y7H2v-4">
          <mxGeometry width="60" height="60" as="geometry" />
        </mxCell>
        <mxCell id="SmYeuK_kKV1mSQ7y7H2v-2" value="" style="rounded=0;whiteSpace=wrap;html=1;fillColor=#dae8fc;strokeColor=#6c8ebf;" vertex="1" parent="SmYeuK_kKV1mSQ7y7H2v-4">
          <mxGeometry x="10" y="10" width="60" height="60" as="geometry" />
        </mxCell>
        <mxCell id="SmYeuK_kKV1mSQ7y7H2v-3" value="" style="rounded=0;whiteSpace=wrap;html=1;fillColor=#f8cecc;strokeColor=#b85450;" vertex="1" parent="SmYeuK_kKV1mSQ7y7H2v-4">
          <mxGeometry x="20" y="20" width="60" height="60" as="geometry" />
        </mxCell>
        <mxCell id="SmYeuK_kKV1mSQ7y7H2v-5" value="224x224x3" style="text;html=1;strokeColor=none;fillColor=none;align=center;verticalAlign=middle;whiteSpace=wrap;rounded=0;" vertex="1" parent="1">
          <mxGeometry x="60" y="170" width="60" height="30" as="geometry" />
        </mxCell>
        <mxCell id="SmYeuK_kKV1mSQ7y7H2v-10" value="" style="edgeStyle=orthogonalEdgeStyle;rounded=0;orthogonalLoop=1;jettySize=auto;html=1;" edge="1" parent="1" source="SmYeuK_kKV1mSQ7y7H2v-6" target="SmYeuK_kKV1mSQ7y7H2v-7">
          <mxGeometry relative="1" as="geometry" />
        </mxCell>
        <mxCell id="SmYeuK_kKV1mSQ7y7H2v-6" value="" style="html=1;whiteSpace=wrap;shape=isoCube2;backgroundOutline=1;isoAngle=15;fillColor=#dae8fc;strokeColor=#6c8ebf;" vertex="1" parent="1">
          <mxGeometry x="190" y="55" width="40" height="150" as="geometry" />
        </mxCell>
        <mxCell id="SmYeuK_kKV1mSQ7y7H2v-13" value="" style="edgeStyle=orthogonalEdgeStyle;rounded=0;orthogonalLoop=1;jettySize=auto;html=1;" edge="1" parent="1" source="SmYeuK_kKV1mSQ7y7H2v-7" target="SmYeuK_kKV1mSQ7y7H2v-12">
          <mxGeometry relative="1" as="geometry" />
        </mxCell>
        <mxCell id="SmYeuK_kKV1mSQ7y7H2v-7" value="" style="html=1;whiteSpace=wrap;shape=isoCube2;backgroundOutline=1;isoAngle=15;fillColor=#dae8fc;strokeColor=#6c8ebf;" vertex="1" parent="1">
          <mxGeometry x="270" y="55" width="40" height="150" as="geometry" />
        </mxCell>
        <mxCell id="SmYeuK_kKV1mSQ7y7H2v-8" value="" style="edgeStyle=orthogonalEdgeStyle;rounded=0;orthogonalLoop=1;jettySize=auto;html=1;" edge="1" parent="1" source="SmYeuK_kKV1mSQ7y7H2v-3" target="SmYeuK_kKV1mSQ7y7H2v-6">
          <mxGeometry relative="1" as="geometry" />
        </mxCell>
        <mxCell id="SmYeuK_kKV1mSQ7y7H2v-11" value="3x3(64)&lt;br&gt;s = 1" style="text;html=1;strokeColor=none;fillColor=none;align=center;verticalAlign=middle;whiteSpace=wrap;rounded=0;" vertex="1" parent="1">
          <mxGeometry x="220" y="15" width="60" height="30" as="geometry" />
        </mxCell>
        <mxCell id="SmYeuK_kKV1mSQ7y7H2v-22" style="edgeStyle=orthogonalEdgeStyle;rounded=0;orthogonalLoop=1;jettySize=auto;html=1;exitX=1;exitY=0.5;exitDx=0;exitDy=0;exitPerimeter=0;entryX=0;entryY=0.5;entryDx=0;entryDy=0;entryPerimeter=0;" edge="1" parent="1" source="SmYeuK_kKV1mSQ7y7H2v-12" target="SmYeuK_kKV1mSQ7y7H2v-20">
          <mxGeometry relative="1" as="geometry" />
        </mxCell>
        <mxCell id="SmYeuK_kKV1mSQ7y7H2v-12" value="" style="html=1;whiteSpace=wrap;shape=isoCube2;backgroundOutline=1;isoAngle=15;fillColor=#f8cecc;strokeColor=#b85450;" vertex="1" parent="1">
          <mxGeometry x="360" y="45" width="20" height="170" as="geometry" />
        </mxCell>
        <mxCell id="SmYeuK_kKV1mSQ7y7H2v-14" value="2x2&lt;br&gt;s = 2" style="text;html=1;strokeColor=none;fillColor=none;align=center;verticalAlign=middle;whiteSpace=wrap;rounded=0;" vertex="1" parent="1">
          <mxGeometry x="350" y="245" width="40" height="30" as="geometry" />
        </mxCell>
        <mxCell id="SmYeuK_kKV1mSQ7y7H2v-17" value="conv1" style="text;html=1;strokeColor=none;fillColor=none;align=center;verticalAlign=middle;whiteSpace=wrap;rounded=0;" vertex="1" parent="1">
          <mxGeometry x="180" y="205" width="60" height="30" as="geometry" />
        </mxCell>
        <mxCell id="SmYeuK_kKV1mSQ7y7H2v-18" value="conv2" style="text;html=1;strokeColor=none;fillColor=none;align=center;verticalAlign=middle;whiteSpace=wrap;rounded=0;" vertex="1" parent="1">
          <mxGeometry x="260" y="205" width="60" height="30" as="geometry" />
        </mxCell>
        <mxCell id="SmYeuK_kKV1mSQ7y7H2v-19" value="max pool 1" style="text;html=1;strokeColor=none;fillColor=none;align=center;verticalAlign=middle;whiteSpace=wrap;rounded=0;" vertex="1" parent="1">
          <mxGeometry x="340" y="215" width="70" height="30" as="geometry" />
        </mxCell>
        <mxCell id="SmYeuK_kKV1mSQ7y7H2v-23" style="edgeStyle=orthogonalEdgeStyle;rounded=0;orthogonalLoop=1;jettySize=auto;html=1;exitX=1;exitY=0.5;exitDx=0;exitDy=0;exitPerimeter=0;entryX=0;entryY=0.5;entryDx=0;entryDy=0;entryPerimeter=0;" edge="1" parent="1" source="SmYeuK_kKV1mSQ7y7H2v-20" target="SmYeuK_kKV1mSQ7y7H2v-21">
          <mxGeometry relative="1" as="geometry" />
        </mxCell>
        <mxCell id="SmYeuK_kKV1mSQ7y7H2v-20" value="" style="html=1;whiteSpace=wrap;shape=isoCube2;backgroundOutline=1;isoAngle=15;fillColor=#d5e8d4;strokeColor=#82b366;" vertex="1" parent="1">
          <mxGeometry x="440" y="55" width="40" height="150" as="geometry" />
        </mxCell>
        <mxCell id="SmYeuK_kKV1mSQ7y7H2v-31" style="edgeStyle=orthogonalEdgeStyle;rounded=0;orthogonalLoop=1;jettySize=auto;html=1;exitX=1;exitY=0.5;exitDx=0;exitDy=0;exitPerimeter=0;entryX=0;entryY=0.5;entryDx=0;entryDy=0;entryPerimeter=0;" edge="1" parent="1" source="SmYeuK_kKV1mSQ7y7H2v-21" target="SmYeuK_kKV1mSQ7y7H2v-29">
          <mxGeometry relative="1" as="geometry" />
        </mxCell>
        <mxCell id="SmYeuK_kKV1mSQ7y7H2v-21" value="" style="html=1;whiteSpace=wrap;shape=isoCube2;backgroundOutline=1;isoAngle=15;fillColor=#d5e8d4;strokeColor=#82b366;" vertex="1" parent="1">
          <mxGeometry x="530" y="55" width="40" height="150" as="geometry" />
        </mxCell>
        <mxCell id="SmYeuK_kKV1mSQ7y7H2v-25" value="3x3(128)&lt;br&gt;s = 1" style="text;html=1;strokeColor=none;fillColor=none;align=center;verticalAlign=middle;whiteSpace=wrap;rounded=0;" vertex="1" parent="1">
          <mxGeometry x="480" y="30" width="60" height="30" as="geometry" />
        </mxCell>
        <mxCell id="SmYeuK_kKV1mSQ7y7H2v-27" value="conv4" style="text;html=1;strokeColor=none;fillColor=none;align=center;verticalAlign=middle;whiteSpace=wrap;rounded=0;" vertex="1" parent="1">
          <mxGeometry x="530" y="215" width="60" height="30" as="geometry" />
        </mxCell>
        <mxCell id="SmYeuK_kKV1mSQ7y7H2v-28" value="conv3" style="text;html=1;strokeColor=none;fillColor=none;align=center;verticalAlign=middle;whiteSpace=wrap;rounded=0;" vertex="1" parent="1">
          <mxGeometry x="430" y="215" width="60" height="30" as="geometry" />
        </mxCell>
        <mxCell id="SmYeuK_kKV1mSQ7y7H2v-29" value="" style="html=1;whiteSpace=wrap;shape=isoCube2;backgroundOutline=1;isoAngle=15;fillColor=#f8cecc;strokeColor=#b85450;" vertex="1" parent="1">
          <mxGeometry x="630" y="45" width="20" height="170" as="geometry" />
        </mxCell>
        <mxCell id="SmYeuK_kKV1mSQ7y7H2v-32" value="2x2&lt;br&gt;s = 2" style="text;html=1;strokeColor=none;fillColor=none;align=center;verticalAlign=middle;whiteSpace=wrap;rounded=0;" vertex="1" parent="1">
          <mxGeometry x="620" y="10" width="40" height="30" as="geometry" />
        </mxCell>
        <mxCell id="SmYeuK_kKV1mSQ7y7H2v-33" value="max pool 2" style="text;html=1;strokeColor=none;fillColor=none;align=center;verticalAlign=middle;whiteSpace=wrap;rounded=0;" vertex="1" parent="1">
          <mxGeometry x="605" y="215" width="70" height="30" as="geometry" />
        </mxCell>
        <mxCell id="SmYeuK_kKV1mSQ7y7H2v-38" style="edgeStyle=orthogonalEdgeStyle;rounded=0;orthogonalLoop=1;jettySize=auto;html=1;entryX=0;entryY=0.5;entryDx=0;entryDy=0;entryPerimeter=0;" edge="1" parent="1" source="SmYeuK_kKV1mSQ7y7H2v-34" target="SmYeuK_kKV1mSQ7y7H2v-35">
          <mxGeometry relative="1" as="geometry">
            <mxPoint x="180" y="310" as="targetPoint" />
          </mxGeometry>
        </mxCell>
        <mxCell id="SmYeuK_kKV1mSQ7y7H2v-34" value="" style="html=1;whiteSpace=wrap;shape=isoCube2;backgroundOutline=1;isoAngle=15;fillColor=#dae8fc;strokeColor=#6c8ebf;" vertex="1" parent="1">
          <mxGeometry x="110" y="285" width="40" height="150" as="geometry" />
        </mxCell>
        <mxCell id="SmYeuK_kKV1mSQ7y7H2v-39" style="edgeStyle=orthogonalEdgeStyle;rounded=0;orthogonalLoop=1;jettySize=auto;html=1;exitX=1;exitY=0.5;exitDx=0;exitDy=0;exitPerimeter=0;entryX=0;entryY=0.5;entryDx=0;entryDy=0;entryPerimeter=0;" edge="1" parent="1" source="SmYeuK_kKV1mSQ7y7H2v-35" target="SmYeuK_kKV1mSQ7y7H2v-36">
          <mxGeometry relative="1" as="geometry" />
        </mxCell>
        <mxCell id="SmYeuK_kKV1mSQ7y7H2v-35" value="" style="html=1;whiteSpace=wrap;shape=isoCube2;backgroundOutline=1;isoAngle=15;fillColor=#dae8fc;strokeColor=#6c8ebf;" vertex="1" parent="1">
          <mxGeometry x="190" y="285" width="40" height="150" as="geometry" />
        </mxCell>
        <mxCell id="SmYeuK_kKV1mSQ7y7H2v-50" value="" style="edgeStyle=orthogonalEdgeStyle;rounded=0;orthogonalLoop=1;jettySize=auto;html=1;" edge="1" parent="1" source="SmYeuK_kKV1mSQ7y7H2v-36" target="SmYeuK_kKV1mSQ7y7H2v-41">
          <mxGeometry relative="1" as="geometry" />
        </mxCell>
        <mxCell id="SmYeuK_kKV1mSQ7y7H2v-36" value="" style="html=1;whiteSpace=wrap;shape=isoCube2;backgroundOutline=1;isoAngle=15;fillColor=#dae8fc;strokeColor=#6c8ebf;" vertex="1" parent="1">
          <mxGeometry x="270" y="285" width="40" height="150" as="geometry" />
        </mxCell>
        <mxCell id="SmYeuK_kKV1mSQ7y7H2v-37" value="" style="endArrow=classic;html=1;rounded=0;entryX=0;entryY=0.5;entryDx=0;entryDy=0;entryPerimeter=0;" edge="1" parent="1" target="SmYeuK_kKV1mSQ7y7H2v-34">
          <mxGeometry width="50" height="50" relative="1" as="geometry">
            <mxPoint x="40" y="360" as="sourcePoint" />
            <mxPoint x="280" y="180" as="targetPoint" />
          </mxGeometry>
        </mxCell>
        <mxCell id="SmYeuK_kKV1mSQ7y7H2v-40" value="3x3(256)&lt;br&gt;s = 1" style="text;html=1;strokeColor=none;fillColor=none;align=center;verticalAlign=middle;whiteSpace=wrap;rounded=0;" vertex="1" parent="1">
          <mxGeometry x="180" y="245" width="60" height="30" as="geometry" />
        </mxCell>
        <mxCell id="SmYeuK_kKV1mSQ7y7H2v-51" value="" style="edgeStyle=orthogonalEdgeStyle;rounded=0;orthogonalLoop=1;jettySize=auto;html=1;" edge="1" parent="1" source="SmYeuK_kKV1mSQ7y7H2v-41" target="SmYeuK_kKV1mSQ7y7H2v-47">
          <mxGeometry relative="1" as="geometry" />
        </mxCell>
        <mxCell id="SmYeuK_kKV1mSQ7y7H2v-41" value="" style="html=1;whiteSpace=wrap;shape=isoCube2;backgroundOutline=1;isoAngle=15;fillColor=#f8cecc;strokeColor=#b85450;" vertex="1" parent="1">
          <mxGeometry x="360" y="275" width="20" height="170" as="geometry" />
        </mxCell>
        <mxCell id="SmYeuK_kKV1mSQ7y7H2v-44" value="2x2&lt;br&gt;s = 2" style="text;html=1;strokeColor=none;fillColor=none;align=center;verticalAlign=middle;whiteSpace=wrap;rounded=0;" vertex="1" parent="1">
          <mxGeometry x="350" y="10" width="40" height="30" as="geometry" />
        </mxCell>
        <mxCell id="SmYeuK_kKV1mSQ7y7H2v-45" value="" style="html=1;whiteSpace=wrap;shape=isoCube2;backgroundOutline=1;isoAngle=15;fillColor=#d5e8d4;strokeColor=#82b366;" vertex="1" parent="1">
          <mxGeometry x="620" y="285" width="40" height="150" as="geometry" />
        </mxCell>
        <mxCell id="SmYeuK_kKV1mSQ7y7H2v-53" value="" style="edgeStyle=orthogonalEdgeStyle;rounded=0;orthogonalLoop=1;jettySize=auto;html=1;" edge="1" parent="1" source="SmYeuK_kKV1mSQ7y7H2v-46" target="SmYeuK_kKV1mSQ7y7H2v-45">
          <mxGeometry relative="1" as="geometry" />
        </mxCell>
        <mxCell id="SmYeuK_kKV1mSQ7y7H2v-46" value="" style="html=1;whiteSpace=wrap;shape=isoCube2;backgroundOutline=1;isoAngle=15;fillColor=#d5e8d4;strokeColor=#82b366;" vertex="1" parent="1">
          <mxGeometry x="530" y="285" width="40" height="150" as="geometry" />
        </mxCell>
        <mxCell id="SmYeuK_kKV1mSQ7y7H2v-52" value="" style="edgeStyle=orthogonalEdgeStyle;rounded=0;orthogonalLoop=1;jettySize=auto;html=1;" edge="1" parent="1" source="SmYeuK_kKV1mSQ7y7H2v-47" target="SmYeuK_kKV1mSQ7y7H2v-46">
          <mxGeometry relative="1" as="geometry" />
        </mxCell>
        <mxCell id="SmYeuK_kKV1mSQ7y7H2v-47" value="" style="html=1;whiteSpace=wrap;shape=isoCube2;backgroundOutline=1;isoAngle=15;fillColor=#d5e8d4;strokeColor=#82b366;" vertex="1" parent="1">
          <mxGeometry x="440" y="285" width="40" height="150" as="geometry" />
        </mxCell>
        <mxCell id="SmYeuK_kKV1mSQ7y7H2v-54" value="3x3(512)&lt;br&gt;s = 1" style="text;html=1;strokeColor=none;fillColor=none;align=center;verticalAlign=middle;whiteSpace=wrap;rounded=0;" vertex="1" parent="1">
          <mxGeometry x="520" y="255" width="60" height="30" as="geometry" />
        </mxCell>
        <mxCell id="SmYeuK_kKV1mSQ7y7H2v-55" value="conv5" style="text;html=1;strokeColor=none;fillColor=none;align=center;verticalAlign=middle;whiteSpace=wrap;rounded=0;" vertex="1" parent="1">
          <mxGeometry x="100" y="445" width="60" height="30" as="geometry" />
        </mxCell>
        <mxCell id="SmYeuK_kKV1mSQ7y7H2v-56" value="conv6" style="text;html=1;strokeColor=none;fillColor=none;align=center;verticalAlign=middle;whiteSpace=wrap;rounded=0;" vertex="1" parent="1">
          <mxGeometry x="180" y="445" width="60" height="30" as="geometry" />
        </mxCell>
        <mxCell id="SmYeuK_kKV1mSQ7y7H2v-57" value="conv7" style="text;html=1;strokeColor=none;fillColor=none;align=center;verticalAlign=middle;whiteSpace=wrap;rounded=0;" vertex="1" parent="1">
          <mxGeometry x="260" y="445" width="60" height="30" as="geometry" />
        </mxCell>
        <mxCell id="SmYeuK_kKV1mSQ7y7H2v-58" value="conv8" style="text;html=1;strokeColor=none;fillColor=none;align=center;verticalAlign=middle;whiteSpace=wrap;rounded=0;" vertex="1" parent="1">
          <mxGeometry x="430" y="445" width="60" height="30" as="geometry" />
        </mxCell>
        <mxCell id="SmYeuK_kKV1mSQ7y7H2v-59" value="conv9" style="text;html=1;strokeColor=none;fillColor=none;align=center;verticalAlign=middle;whiteSpace=wrap;rounded=0;" vertex="1" parent="1">
          <mxGeometry x="520" y="445" width="60" height="30" as="geometry" />
        </mxCell>
        <mxCell id="SmYeuK_kKV1mSQ7y7H2v-60" value="conv10" style="text;html=1;strokeColor=none;fillColor=none;align=center;verticalAlign=middle;whiteSpace=wrap;rounded=0;" vertex="1" parent="1">
          <mxGeometry x="610" y="445" width="60" height="30" as="geometry" />
        </mxCell>
        <mxCell id="SmYeuK_kKV1mSQ7y7H2v-65" value="" style="edgeStyle=orthogonalEdgeStyle;rounded=0;orthogonalLoop=1;jettySize=auto;html=1;" edge="1" parent="1" source="SmYeuK_kKV1mSQ7y7H2v-61" target="SmYeuK_kKV1mSQ7y7H2v-62">
          <mxGeometry relative="1" as="geometry" />
        </mxCell>
        <mxCell id="SmYeuK_kKV1mSQ7y7H2v-61" value="" style="html=1;whiteSpace=wrap;shape=isoCube2;backgroundOutline=1;isoAngle=15;fillColor=#d5e8d4;strokeColor=#82b366;" vertex="1" parent="1">
          <mxGeometry x="110" y="510" width="40" height="150" as="geometry" />
        </mxCell>
        <mxCell id="SmYeuK_kKV1mSQ7y7H2v-66" value="" style="edgeStyle=orthogonalEdgeStyle;rounded=0;orthogonalLoop=1;jettySize=auto;html=1;" edge="1" parent="1" source="SmYeuK_kKV1mSQ7y7H2v-62" target="SmYeuK_kKV1mSQ7y7H2v-63">
          <mxGeometry relative="1" as="geometry" />
        </mxCell>
        <mxCell id="SmYeuK_kKV1mSQ7y7H2v-62" value="" style="html=1;whiteSpace=wrap;shape=isoCube2;backgroundOutline=1;isoAngle=15;fillColor=#d5e8d4;strokeColor=#82b366;" vertex="1" parent="1">
          <mxGeometry x="190" y="510" width="40" height="150" as="geometry" />
        </mxCell>
        <mxCell id="SmYeuK_kKV1mSQ7y7H2v-69" value="" style="edgeStyle=orthogonalEdgeStyle;rounded=0;orthogonalLoop=1;jettySize=auto;html=1;" edge="1" parent="1" source="SmYeuK_kKV1mSQ7y7H2v-63" target="SmYeuK_kKV1mSQ7y7H2v-68">
          <mxGeometry relative="1" as="geometry" />
        </mxCell>
        <mxCell id="SmYeuK_kKV1mSQ7y7H2v-63" value="" style="html=1;whiteSpace=wrap;shape=isoCube2;backgroundOutline=1;isoAngle=15;fillColor=#d5e8d4;strokeColor=#82b366;" vertex="1" parent="1">
          <mxGeometry x="270" y="510" width="40" height="150" as="geometry" />
        </mxCell>
        <mxCell id="SmYeuK_kKV1mSQ7y7H2v-64" value="3x3(512)&lt;br&gt;s = 1" style="text;html=1;strokeColor=none;fillColor=none;align=center;verticalAlign=middle;whiteSpace=wrap;rounded=0;" vertex="1" parent="1">
          <mxGeometry x="180" y="480" width="60" height="30" as="geometry" />
        </mxCell>
        <mxCell id="SmYeuK_kKV1mSQ7y7H2v-67" value="" style="endArrow=classic;html=1;rounded=0;entryX=0;entryY=0.5;entryDx=0;entryDy=0;entryPerimeter=0;" edge="1" parent="1" target="SmYeuK_kKV1mSQ7y7H2v-61">
          <mxGeometry width="50" height="50" relative="1" as="geometry">
            <mxPoint x="40" y="585" as="sourcePoint" />
            <mxPoint x="370" y="510" as="targetPoint" />
          </mxGeometry>
        </mxCell>
        <mxCell id="SmYeuK_kKV1mSQ7y7H2v-73" value="" style="edgeStyle=orthogonalEdgeStyle;rounded=0;orthogonalLoop=1;jettySize=auto;html=1;" edge="1" parent="1" source="SmYeuK_kKV1mSQ7y7H2v-68" target="SmYeuK_kKV1mSQ7y7H2v-72">
          <mxGeometry relative="1" as="geometry" />
        </mxCell>
        <mxCell id="SmYeuK_kKV1mSQ7y7H2v-68" value="" style="html=1;whiteSpace=wrap;shape=isoCube2;backgroundOutline=1;isoAngle=15;fillColor=#f8cecc;strokeColor=#b85450;" vertex="1" parent="1">
          <mxGeometry x="360" y="500" width="20" height="170" as="geometry" />
        </mxCell>
        <mxCell id="SmYeuK_kKV1mSQ7y7H2v-70" value="2x2&lt;br&gt;s = 2" style="text;html=1;strokeColor=none;fillColor=none;align=center;verticalAlign=middle;whiteSpace=wrap;rounded=0;" vertex="1" parent="1">
          <mxGeometry x="350" y="470" width="40" height="30" as="geometry" />
        </mxCell>
        <mxCell id="SmYeuK_kKV1mSQ7y7H2v-79" value="" style="group" vertex="1" connectable="0" parent="1">
          <mxGeometry x="430" y="505" width="30" height="160" as="geometry" />
        </mxCell>
        <mxCell id="SmYeuK_kKV1mSQ7y7H2v-72" value="" style="rounded=0;whiteSpace=wrap;html=1;" vertex="1" parent="SmYeuK_kKV1mSQ7y7H2v-79">
          <mxGeometry width="30" height="160" as="geometry" />
        </mxCell>
        <mxCell id="SmYeuK_kKV1mSQ7y7H2v-74" value="" style="ellipse;whiteSpace=wrap;html=1;aspect=fixed;" vertex="1" parent="SmYeuK_kKV1mSQ7y7H2v-79">
          <mxGeometry y="5" width="30" height="30" as="geometry" />
        </mxCell>
        <mxCell id="SmYeuK_kKV1mSQ7y7H2v-75" value="" style="ellipse;whiteSpace=wrap;html=1;aspect=fixed;" vertex="1" parent="SmYeuK_kKV1mSQ7y7H2v-79">
          <mxGeometry y="45" width="30" height="30" as="geometry" />
        </mxCell>
        <mxCell id="SmYeuK_kKV1mSQ7y7H2v-76" value="" style="ellipse;whiteSpace=wrap;html=1;aspect=fixed;" vertex="1" parent="SmYeuK_kKV1mSQ7y7H2v-79">
          <mxGeometry y="85" width="30" height="30" as="geometry" />
        </mxCell>
        <mxCell id="SmYeuK_kKV1mSQ7y7H2v-78" value="" style="ellipse;whiteSpace=wrap;html=1;aspect=fixed;" vertex="1" parent="SmYeuK_kKV1mSQ7y7H2v-79">
          <mxGeometry y="125" width="30" height="30" as="geometry" />
        </mxCell>
        <mxCell id="SmYeuK_kKV1mSQ7y7H2v-82" value="" style="group" vertex="1" connectable="0" parent="1">
          <mxGeometry x="495" y="505" width="30" height="160" as="geometry" />
        </mxCell>
        <mxCell id="SmYeuK_kKV1mSQ7y7H2v-83" value="" style="rounded=0;whiteSpace=wrap;html=1;" vertex="1" parent="SmYeuK_kKV1mSQ7y7H2v-82">
          <mxGeometry width="30" height="160" as="geometry" />
        </mxCell>
        <mxCell id="SmYeuK_kKV1mSQ7y7H2v-84" value="" style="ellipse;whiteSpace=wrap;html=1;aspect=fixed;" vertex="1" parent="SmYeuK_kKV1mSQ7y7H2v-82">
          <mxGeometry y="5" width="30" height="30" as="geometry" />
        </mxCell>
        <mxCell id="SmYeuK_kKV1mSQ7y7H2v-85" value="" style="ellipse;whiteSpace=wrap;html=1;aspect=fixed;" vertex="1" parent="SmYeuK_kKV1mSQ7y7H2v-82">
          <mxGeometry y="45" width="30" height="30" as="geometry" />
        </mxCell>
        <mxCell id="SmYeuK_kKV1mSQ7y7H2v-86" value="" style="ellipse;whiteSpace=wrap;html=1;aspect=fixed;" vertex="1" parent="SmYeuK_kKV1mSQ7y7H2v-82">
          <mxGeometry y="85" width="30" height="30" as="geometry" />
        </mxCell>
        <mxCell id="SmYeuK_kKV1mSQ7y7H2v-87" value="" style="ellipse;whiteSpace=wrap;html=1;aspect=fixed;" vertex="1" parent="SmYeuK_kKV1mSQ7y7H2v-82">
          <mxGeometry y="125" width="30" height="30" as="geometry" />
        </mxCell>
        <mxCell id="SmYeuK_kKV1mSQ7y7H2v-88" value="" style="group" vertex="1" connectable="0" parent="1">
          <mxGeometry x="560" y="505" width="30" height="160" as="geometry" />
        </mxCell>
        <mxCell id="SmYeuK_kKV1mSQ7y7H2v-89" value="" style="rounded=0;whiteSpace=wrap;html=1;" vertex="1" parent="SmYeuK_kKV1mSQ7y7H2v-88">
          <mxGeometry width="30" height="160" as="geometry" />
        </mxCell>
        <mxCell id="SmYeuK_kKV1mSQ7y7H2v-90" value="" style="ellipse;whiteSpace=wrap;html=1;aspect=fixed;" vertex="1" parent="SmYeuK_kKV1mSQ7y7H2v-88">
          <mxGeometry y="5" width="30" height="30" as="geometry" />
        </mxCell>
        <mxCell id="SmYeuK_kKV1mSQ7y7H2v-91" value="" style="ellipse;whiteSpace=wrap;html=1;aspect=fixed;" vertex="1" parent="SmYeuK_kKV1mSQ7y7H2v-88">
          <mxGeometry y="45" width="30" height="30" as="geometry" />
        </mxCell>
        <mxCell id="SmYeuK_kKV1mSQ7y7H2v-92" value="" style="ellipse;whiteSpace=wrap;html=1;aspect=fixed;" vertex="1" parent="SmYeuK_kKV1mSQ7y7H2v-88">
          <mxGeometry y="85" width="30" height="30" as="geometry" />
        </mxCell>
        <mxCell id="SmYeuK_kKV1mSQ7y7H2v-93" value="" style="ellipse;whiteSpace=wrap;html=1;aspect=fixed;" vertex="1" parent="SmYeuK_kKV1mSQ7y7H2v-88">
          <mxGeometry y="125" width="30" height="30" as="geometry" />
        </mxCell>
        <mxCell id="SmYeuK_kKV1mSQ7y7H2v-97" style="edgeStyle=orthogonalEdgeStyle;rounded=0;orthogonalLoop=1;jettySize=auto;html=1;exitX=1;exitY=0.5;exitDx=0;exitDy=0;entryX=0;entryY=0.5;entryDx=0;entryDy=0;" edge="1" parent="1" source="SmYeuK_kKV1mSQ7y7H2v-72" target="SmYeuK_kKV1mSQ7y7H2v-83">
          <mxGeometry relative="1" as="geometry">
            <mxPoint x="490" y="585" as="targetPoint" />
          </mxGeometry>
        </mxCell>
        <mxCell id="SmYeuK_kKV1mSQ7y7H2v-98" style="edgeStyle=orthogonalEdgeStyle;rounded=0;orthogonalLoop=1;jettySize=auto;html=1;exitX=1;exitY=0.5;exitDx=0;exitDy=0;entryX=0;entryY=0.5;entryDx=0;entryDy=0;" edge="1" parent="1" source="SmYeuK_kKV1mSQ7y7H2v-83" target="SmYeuK_kKV1mSQ7y7H2v-89">
          <mxGeometry relative="1" as="geometry" />
        </mxCell>
        <mxCell id="SmYeuK_kKV1mSQ7y7H2v-99" value="conv11" style="text;html=1;strokeColor=none;fillColor=none;align=center;verticalAlign=middle;whiteSpace=wrap;rounded=0;" vertex="1" parent="1">
          <mxGeometry x="100" y="660" width="60" height="30" as="geometry" />
        </mxCell>
        <mxCell id="SmYeuK_kKV1mSQ7y7H2v-100" value="conv12" style="text;html=1;strokeColor=none;fillColor=none;align=center;verticalAlign=middle;whiteSpace=wrap;rounded=0;" vertex="1" parent="1">
          <mxGeometry x="180" y="660" width="60" height="30" as="geometry" />
        </mxCell>
        <mxCell id="SmYeuK_kKV1mSQ7y7H2v-101" value="conv13" style="text;html=1;strokeColor=none;fillColor=none;align=center;verticalAlign=middle;whiteSpace=wrap;rounded=0;" vertex="1" parent="1">
          <mxGeometry x="260" y="660" width="60" height="30" as="geometry" />
        </mxCell>
        <mxCell id="SmYeuK_kKV1mSQ7y7H2v-102" value="FC" style="text;html=1;strokeColor=none;fillColor=none;align=center;verticalAlign=middle;whiteSpace=wrap;rounded=0;" vertex="1" parent="1">
          <mxGeometry x="415" y="665" width="60" height="30" as="geometry" />
        </mxCell>
        <mxCell id="SmYeuK_kKV1mSQ7y7H2v-103" value="FC" style="text;html=1;strokeColor=none;fillColor=none;align=center;verticalAlign=middle;whiteSpace=wrap;rounded=0;" vertex="1" parent="1">
          <mxGeometry x="480" y="665" width="60" height="30" as="geometry" />
        </mxCell>
        <mxCell id="SmYeuK_kKV1mSQ7y7H2v-104" value="FC" style="text;html=1;strokeColor=none;fillColor=none;align=center;verticalAlign=middle;whiteSpace=wrap;rounded=0;" vertex="1" parent="1">
          <mxGeometry x="545" y="665" width="60" height="30" as="geometry" />
        </mxCell>
      </root>
    </mxGraphModel>
  </diagram>
</mxfile>
